<?xml version="1.0" encoding="utf-8"?>
<!-- Generator: Adobe Illustrator 26.1.0, SVG Export Plug-In . SVG Version: 6.00 Build 0)  -->
<svg version="1.1" id="Layer_1" xmlns="http://www.w3.org/2000/svg" xmlns:xlink="http://www.w3.org/1999/xlink" x="0px" y="0px"
	 viewBox="0 0 360 111" style="enable-background:new 0 0 360 111;" xml:space="preserve">
<style type="text/css">
	.st0{fill:#C4C4C4;filter:url(#Adobe_OpacityMaskFilter);}
	.st1{mask:url(#mask0_00000163043595389647747850000004296600125917250714_);}
	.st2{fill:none;stroke:#000000;stroke-width:2;}
</style>
<defs>
	<filter id="Adobe_OpacityMaskFilter" filterUnits="userSpaceOnUse" x="14.7" y="20.4" width="336" height="65.7">
		<feColorMatrix  type="matrix" values="1 0 0 0 0  0 1 0 0 0  0 0 1 0 0  0 0 0 1 0"/>
	</filter>
</defs>
<mask maskUnits="userSpaceOnUse" x="14.7" y="20.4" width="336" height="65.7" id="mask0_00000163043595389647747850000004296600125917250714_">
	<rect x="-6.1" y="-2.4" class="st0" width="360" height="110.8"/>
</mask>
<g class="st1">
	<path class="st2" d="M76.5,52.7C76.5,52.7,76.5,52.7,76.5,52.7C76.5,52.7,76.5,52.7,76.5,52.7C76.5,52.7,76.5,52.7,76.5,52.7
		C76.6,52.7,76.6,52.7,76.5,52.7C76.6,52.7,76.6,52.7,76.5,52.7C76.6,52.7,76.6,52.8,76.5,52.7L75,72c0,0,0,0,0,0l0.7,0.9L75,72
		L58,84.4c0,0,0,0,0,0c0,0,0,0,0,0c0,0,0,0,0,0c0,0,0,0,0,0c0,0,0,0,0,0c0,0,0,0,0,0c0,0,0,0,0,0c0,0,0,0,0,0V62.8c0,0,0,0,0,0
		L76.5,52.7z"/>
	<path class="st2" d="M73.5,50.8l-16.6,9l-6.7-4.3l7.8-5L73.5,50.8z M58.2,50.4C58.2,50.4,58.2,50.4,58.2,50.4L58.2,50.4l-0.4-0.7
		L58.2,50.4z"/>
	<path class="st2" d="M54.7,62.7v20l-6.9-10.8l0.4-13.4L54.7,62.7z M55.1,62.9C55.1,62.9,55.1,62.9,55.1,62.9L55.1,62.9l0.4-0.6
		L55.1,62.9z"/>
	<path class="st2" d="M34.6,84.3C34.6,84.3,34.6,84.3,34.6,84.3C34.6,84.3,34.6,84.3,34.6,84.3C34.6,84.3,34.6,84.3,34.6,84.3
		C34.6,84.3,34.6,84.3,34.6,84.3C34.6,84.3,34.6,84.3,34.6,84.3C34.6,84.3,34.6,84.3,34.6,84.3L18.4,73.8c0,0,0,0,0,0l-2.7-20.8
		c0,0,0,0,0,0c0,0,0,0,0,0c0,0,0,0,0,0c0,0,0,0,0,0c0,0,0,0,0,0c0,0,0,0,0,0l18.9,10.3c0,0,0,0,0,0L34.6,84.3z"/>
	<path class="st2" d="M44.6,71.4L38,82.3l0-19.1l6.6-3.9V71.4z M37.6,63.4L37.6,63.4C37.6,63.4,37.6,63.4,37.6,63.4l-0.4-0.7
		L37.6,63.4z M44.6,71.6C44.6,71.6,44.6,71.6,44.6,71.6L44.6,71.6z"/>
	<path class="st2" d="M42.6,56.4l-6.5,3.9l-17.6-9.5l13.8-0.4L42.6,56.4z"/>
	<path class="st2" d="M27.2,31.2C27.2,31.2,27.2,31.2,27.2,31.2C27.2,31.2,27.2,31.2,27.2,31.2C27.2,31.2,27.2,31.2,27.2,31.2
		C27.1,31.2,27.2,31.2,27.2,31.2C27.2,31.2,27.2,31.2,27.2,31.2C27.2,31.2,27.2,31.2,27.2,31.2l16.9-9.8c0,0,0,0,0,0L63.7,29
		c0,0,0,0,0,0c0,0,0,0,0,0c0,0,0,0,0,0c0,0,0,0,0,0c0,0,0,0,0,0c0,0,0,0,0,0L45.5,40.7c0,0,0,0,0,0L27.2,31.2z"/>
	<path class="st2" d="M35.2,46.2l-6.8-10.4l15.8,8v7.8L35.2,46.2z M44.6,44.1C44.6,44.1,44.6,44.1,44.6,44.1L44.6,44.1l0.4-0.7
		L44.6,44.1z"/>
	<path class="st2" d="M47.4,43.8l16.7-10.5l-6.9,12.5l-9.8,5.8V43.8z"/>
	<path d="M133.5,57l-3.7,3.9v10.2h-5.6V38.5h5.6v15.3l3.1-3.9l9.5-11.4h6.8l-12,14.5l12.7,18.2h-6.7L133.5,57z"/>
	<path d="M166.4,68.8c-1.6,1.9-3.8,2.8-6.7,2.8c-2.6,0-4.6-0.8-5.9-2.3c-1.3-1.5-2-3.8-2-6.7V46.9h5.4v15.6c0,3.1,1.3,4.6,3.8,4.6
		c2.6,0,4.4-0.9,5.3-2.8V46.9h5.4v24.3h-5.1L166.4,68.8z"/>
	<path d="M198.2,59.3c0,3.8-0.8,6.8-2.5,9c-1.7,2.2-3.9,3.3-6.9,3.3c-2.8,0-5-1-6.6-3.1l-0.3,2.6h-4.9V36.7h5.4v12.5
		c1.6-1.9,3.6-2.8,6.3-2.8c2.9,0,5.2,1.1,6.9,3.3c1.7,2.2,2.5,5.3,2.5,9.2V59.3z M192.8,58.8c0-2.6-0.5-4.6-1.4-5.9
		c-0.9-1.3-2.2-2-4-2c-2.3,0-4,1-4.9,3.1v10c1,2.1,2.6,3.2,5,3.2c1.7,0,3-0.6,3.9-1.9c0.9-1.3,1.4-3.2,1.4-5.8V58.8z"/>
	<path d="M213.3,71.6c-3.4,0-6.2-1.1-8.3-3.3c-2.1-2.2-3.2-5.1-3.2-8.7V59c0-2.4,0.5-4.6,1.4-6.5c0.9-1.9,2.2-3.4,3.9-4.5
		c1.7-1.1,3.5-1.6,5.6-1.6c3.3,0,5.8,1.1,7.6,3.2c1.8,2.1,2.7,5.1,2.7,8.9v2.2h-15.7c0.2,2,0.8,3.6,2,4.8c1.2,1.2,2.6,1.7,4.4,1.7
		c2.5,0,4.5-1,6-3l2.9,2.8c-1,1.4-2.2,2.6-3.9,3.4C217.1,71.2,215.3,71.6,213.3,71.6z M212.6,50.8c-1.5,0-2.7,0.5-3.6,1.6
		c-0.9,1-1.5,2.5-1.7,4.4h10.3v-0.4c-0.1-1.8-0.6-3.2-1.4-4.1C215.3,51.3,214.1,50.8,212.6,50.8z"/>
	<path d="M239.7,51.9c-0.7-0.1-1.4-0.2-2.2-0.2c-2.5,0-4.1,1-5,2.9v16.6h-5.4V46.9h5.1l0.1,2.7c1.3-2.1,3.1-3.2,5.4-3.2
		c0.8,0,1.4,0.1,1.9,0.3L239.7,51.9z"/>
	<path d="M249.2,66.6h14.7v4.5h-20.3V38.5h5.6V66.6z"/>
	<path d="M266.7,58.8c0-2.4,0.5-4.5,1.4-6.4c0.9-1.9,2.2-3.4,3.9-4.4c1.7-1,3.6-1.5,5.8-1.5c3.2,0,5.9,1.1,7.9,3.2
		c2,2.1,3.1,4.9,3.3,8.4l0,1.3c0,2.4-0.5,4.5-1.4,6.4c-0.9,1.9-2.2,3.3-3.9,4.4c-1.7,1-3.6,1.5-5.9,1.5c-3.4,0-6.1-1.1-8.1-3.4
		c-2-2.3-3-5.3-3-9.1V58.8z M272.1,59.3c0,2.5,0.5,4.5,1.5,5.9c1,1.4,2.4,2.1,4.3,2.1c1.8,0,3.2-0.7,4.2-2.2c1-1.4,1.5-3.5,1.5-6.3
		c0-2.5-0.5-4.4-1.6-5.8c-1-1.4-2.4-2.2-4.2-2.2c-1.8,0-3.2,0.7-4.2,2.1C272.6,54.3,272.1,56.5,272.1,59.3z"/>
	<path d="M292.6,58.8c0-3.8,0.9-6.8,2.6-9c1.8-2.3,4.1-3.4,7-3.4c2.7,0,4.9,1,6.5,2.9l0.2-2.4h4.9v23.5c0,3.2-1,5.7-3,7.5
		c-2,1.8-4.6,2.8-7.9,2.8c-1.8,0-3.5-0.4-5.2-1.1c-1.7-0.7-2.9-1.7-3.8-2.9l2.6-3.3c1.7,2,3.7,3,6.1,3c1.8,0,3.2-0.5,4.2-1.5
		c1-1,1.6-2.4,1.6-4.3V69c-1.6,1.7-3.6,2.6-6.2,2.6c-2.8,0-5.1-1.1-6.9-3.4C293.5,65.9,292.6,62.8,292.6,58.8z M298,59.3
		c0,2.4,0.5,4.4,1.5,5.8c1,1.4,2.4,2.1,4.1,2.1c2.2,0,3.8-0.9,4.8-2.8V53.7c-1-1.8-2.6-2.8-4.8-2.8c-1.8,0-3.2,0.7-4.1,2.1
		C298.5,54.4,298,56.5,298,59.3z"/>
	<path d="M325.1,71.1h-5.4V46.9h5.4V71.1z M319.3,40.6c0-0.8,0.3-1.5,0.8-2.1c0.5-0.6,1.3-0.8,2.3-0.8c1,0,1.7,0.3,2.3,0.8
		c0.5,0.6,0.8,1.2,0.8,2.1c0,0.8-0.3,1.5-0.8,2.1c-0.5,0.5-1.3,0.8-2.3,0.8c-1,0-1.7-0.3-2.3-0.8C319.6,42.1,319.3,41.4,319.3,40.6z
		"/>
	<path d="M340.8,67.2c1.3,0,2.5-0.4,3.4-1.2c0.9-0.8,1.4-1.8,1.4-2.9h5.1c-0.1,1.5-0.5,2.9-1.4,4.2c-0.9,1.3-2.1,2.3-3.5,3.1
		c-1.5,0.8-3.1,1.1-4.8,1.1c-3.4,0-6-1.1-8-3.3c-2-2.2-3-5.2-3-9.1v-0.6c0-3.7,1-6.6,2.9-8.9c2-2.2,4.6-3.3,8-3.3
		c2.9,0,5.2,0.8,7,2.5c1.8,1.7,2.8,3.9,2.8,6.6h-5.1c-0.1-1.4-0.5-2.5-1.4-3.4c-0.9-0.9-2-1.3-3.4-1.3c-1.7,0-3.1,0.6-4,1.9
		c-0.9,1.3-1.4,3.2-1.4,5.8v0.9c0,2.6,0.5,4.6,1.4,5.9C337.7,66.6,339.1,67.2,340.8,67.2z"/>
</g>
</svg>
